<?xml version="1.0" standalone="no"?>
<!DOCTYPE svg PUBLIC "-//W3C//DTD SVG 20010904//EN"
 "http://www.w3.org/TR/2001/REC-SVG-20010904/DTD/svg10.dtd">
<svg version="1.0" xmlns="http://www.w3.org/2000/svg"
 width="512.000000pt" height="512.000000pt" viewBox="0 0 512.000000 512.000000"
 preserveAspectRatio="xMidYMid meet">
<metadata>
Created by potrace 1.14, written by Peter Selinger 2001-2017
</metadata>
<g transform="translate(0.000000,512.000000) scale(0.100000,-0.100000)"
fill="#000000" stroke="none">
<path d="M2479 5060 c-9 -5 -35 -12 -59 -15 -23 -3 -71 -12 -106 -20 -34 -8
-79 -14 -98 -13 -19 1 -41 -3 -48 -9 -7 -6 -58 -34 -113 -64 -209 -110 -334
-211 -430 -346 l-30 -42 -514 2 -513 2 -70 -38 c-111 -62 -141 -134 -141 -339
l1 -128 -32 -1 c-17 -1 -41 0 -53 1 -12 1 -49 -8 -82 -20 -80 -30 -126 -77
-150 -153 -17 -57 -18 -140 -17 -1741 1 -1843 -3 -1706 58 -1763 59 -55 152
-76 333 -73 66 1 465 2 888 3 l767 2 0 -31 c0 -52 28 -129 57 -156 72 -67 119
-75 433 -73 234 1 271 4 318 21 96 34 159 106 165 189 2 20 8 40 14 43 6 4
418 7 915 6 l903 -1 60 24 c82 32 138 85 151 144 14 60 16 234 15 1249 -2
2053 -4 2182 -25 2216 -47 74 -134 114 -250 114 l-73 0 1 148 c0 81 -3 165 -7
186 -16 84 -68 140 -152 161 -16 4 -260 7 -541 7 l-510 -1 -19 32 c-26 45 -57
82 -133 160 -178 182 -453 301 -717 311 -55 2 -118 7 -140 10 -22 4 -47 2 -56
-4z m144 -67 c6 -5 -47 -38 -263 -161 -25 -14 -74 -43 -110 -64 -90 -55 -69
-37 125 107 143 106 175 125 206 125 19 0 39 -3 42 -7z m-293 -17 c0 -2 -42
-27 -92 -55 -89 -49 -90 -47 -10 21 34 28 102 51 102 34z m466 -14 c6 -4 -56
-46 -147 -99 -88 -50 -159 -90 -159 -88 0 6 280 195 289 195 3 0 11 -4 17 -8z
m137 -48 c5 -6 -84 -62 -168 -106 -40 -21 2 13 76 62 79 52 82 53 92 44z m131
-67 c17 -13 15 -16 -25 -39 -65 -37 -428 -247 -469 -271 -78 -45 -3 9 224 162
132 88 242 161 246 161 3 0 14 -6 24 -13z m160 -115 c6 -11 -297 -182 -322
-182 -27 0 -241 -124 -267 -154 -25 -30 -109 -82 -103 -65 2 7 29 30 59 51 30
20 171 118 314 216 l260 180 27 -20 c15 -10 29 -22 32 -26z m86 -84 c0 -7 -55
-44 -123 -82 -67 -39 -133 -77 -147 -86 -44 -29 -125 -73 -117 -64 17 18 362
242 375 243 6 1 12 -5 12 -11z m-1520 -98 c-35 -30 -50 -36 -50 -22 0 6 69 51
80 51 3 0 -11 -13 -30 -29z m1608 -6 c-2 -1 -75 -44 -163 -95 -88 -50 -171
-99 -185 -107 l-25 -14 23 19 c13 11 63 44 110 74 48 30 116 76 150 102 52 38
67 45 78 36 8 -7 13 -13 12 -15z m-2690 -74 c-27 -16 -50 -30 -53 -30 -2 0
-21 -11 -41 -25 -20 -14 -39 -23 -41 -21 -2 2 10 26 26 53 l31 50 62 2 63 1
-47 -30z m287 21 c-6 -5 -59 -36 -120 -70 -69 -39 -99 -52 -80 -35 17 15 52
46 78 70 41 37 55 44 90 44 24 0 37 -4 32 -9z m235 0 c0 -7 -18 -19 -129 -83
-46 -26 -87 -46 -89 -43 -3 3 3 12 14 19 10 8 47 36 82 63 43 33 73 49 93 49
16 0 29 -2 29 -5z m320 -1 c0 -6 -235 -146 -345 -206 -42 -23 -95 -54 -132
-77 -106 -66 -47 -13 183 163 l163 125 65 1 c36 0 66 -3 66 -6z m2300 -1 c0
-9 -192 -119 -208 -119 -7 0 -13 7 -13 15 -1 8 -2 20 -3 25 -1 6 24 27 55 48
48 31 65 37 113 38 31 0 56 -3 56 -7z m274 -1 c-3 -5 -26 -20 -52 -33 -26 -14
-62 -35 -81 -46 -96 -57 -294 -169 -300 -169 -4 0 -7 8 -8 18 0 12 52 50 178
127 157 97 184 111 223 111 24 0 42 -4 40 -8z m216 -44 c-52 -31 -126 -74
-165 -95 -38 -22 -154 -89 -257 -148 -103 -60 -189 -106 -192 -103 -19 18 21
47 272 203 152 94 284 178 292 185 9 9 38 14 80 14 l65 0 -95 -56z m238 8 c21
-19 20 -19 -126 -104 -81 -47 -163 -95 -182 -106 -19 -11 -75 -43 -125 -72
-49 -29 -109 -63 -133 -77 -23 -13 -93 -53 -154 -89 -61 -35 -113 -64 -115
-64 -2 0 -3 7 -1 15 2 8 185 127 408 264 223 138 405 251 406 251 1 0 10 -8
22 -18z m-1109 -15 c-16 -13 -159 -95 -159 -91 0 8 154 104 158 99 3 -3 3 -6
1 -8z m-2469 -87 c0 -5 -5 -10 -11 -10 -5 0 -7 5 -4 10 3 6 8 10 11 10 2 0 4
-4 4 -10z m3630 -44 l0 -43 -82 -48 c-45 -26 -98 -56 -117 -67 -51 -29 -628
-361 -675 -388 l-38 -23 7 24 c4 13 13 27 19 31 6 4 77 49 158 100 81 51 236
149 345 217 109 69 239 150 288 182 50 32 91 58 93 58 1 1 2 -19 2 -43z
m-4115 -56 c-10 -11 -23 -20 -29 -20 -6 1 0 10 13 20 30 26 39 26 16 0z m4119
-103 c-5 -14 -21 -24 -388 -236 -295 -171 -299 -173 -292 -162 4 5 19 16 34
24 15 7 88 51 162 96 74 46 196 120 270 166 74 45 151 92 170 103 40 25 51 27
44 9z m-4045 0 c-2 -1 -25 -20 -51 -41 -32 -24 -48 -32 -48 -23 0 14 74 66 94
67 5 0 7 -1 5 -3z m211 -20 c-124 -97 -156 -119 -263 -181 -46 -27 -48 -27
-45 -7 2 15 46 46 158 111 149 86 183 103 150 77z m-470 -153 c0 -7 -72 -46
-76 -41 -8 7 42 44 60 44 9 0 16 -1 16 -3z m4310 -12 c0 -17 -37 -41 -270
-174 -129 -75 -291 -168 -360 -208 -148 -86 -148 -86 -135 -73 6 5 127 81 270
168 143 88 309 190 370 227 109 68 125 75 125 60z m270 -16 c0 -9 -144 -86
-154 -83 -6 2 15 18 46 36 32 18 61 37 64 42 5 9 44 13 44 5z m60 -98 c0 -18
-15 -31 -68 -60 -37 -21 -86 -49 -108 -62 l-41 -26 1 23 c1 17 25 37 101 84
55 35 103 63 108 63 4 0 7 -10 7 -22z m-4716 -193 c-93 -81 -119 -93 -107 -46
4 15 173 127 196 130 5 1 -36 -37 -89 -84z m3686 80 c0 -2 -10 -9 -22 -15 -22
-11 -22 -10 -4 4 21 17 26 19 26 11z m1033 -34 c2 -10 2 -23 -2 -28 -8 -13
-196 -123 -210 -123 -6 0 -9 10 -7 23 2 16 31 40 102 84 54 34 102 63 105 63
4 0 9 -9 12 -19z m-4603 -145 c0 -2 -35 -30 -77 -62 -43 -31 -93 -69 -110 -82
l-33 -24 0 28 c1 26 11 35 103 86 95 54 117 64 117 54z m4603 -15 c2 -10 2
-23 -2 -29 -6 -10 -126 -83 -188 -116 -29 -15 -30 -14 -28 11 1 20 19 37 100
88 55 35 103 64 106 64 4 1 9 -8 12 -18z m-4238 -109 c-6 -5 -41 -31 -80 -57
-38 -27 -91 -64 -117 -83 -42 -29 -48 -31 -48 -15 0 14 34 39 123 90 120 71
140 81 122 65z m4237 -86 c-2 -14 -35 -39 -100 -76 -53 -30 -102 -56 -108 -58
-11 -3 -13 53 -3 62 2 2 49 31 104 65 84 51 101 58 106 44 3 -9 4 -26 1 -37z
m-4608 29 c-4 -8 -47 -45 -98 -81 -50 -37 -97 -71 -103 -77 -10 -7 -13 -1 -13
24 0 36 -2 34 110 97 25 14 54 31 65 38 26 18 46 18 39 -1z m1 -173 c0 -9 -4
-23 -8 -30 -7 -10 -166 -124 -202 -145 -7 -3 -9 9 -7 34 4 38 7 41 106 99 55
33 104 60 107 60 3 0 5 -8 4 -18z m4609 -12 c0 -17 -5 -35 -10 -40 -10 -10
-201 -120 -208 -120 -2 0 -3 15 -2 33 2 29 11 38 102 94 54 34 104 62 109 62
6 1 10 -13 9 -29z m-339 -49 c-3 -6 -47 -34 -98 -63 -50 -29 -100 -57 -109
-63 -9 -5 -29 -17 -45 -26 -15 -8 -49 -28 -75 -43 -27 -15 -48 -26 -48 -23 0
3 24 20 53 37 28 17 108 66 177 110 115 72 160 94 145 71z m333 -125 c-21 -19
-203 -116 -211 -113 -16 5 8 23 113 86 68 42 96 54 98 44 2 -8 2 -16 0 -17z
m-4602 9 c-1 -9 -49 -47 -107 -86 -94 -62 -104 -67 -107 -48 -2 11 -2 22 0 24
3 3 212 124 215 125 1 0 0 -7 -1 -15z m4264 -45 c0 -6 -10 -15 -22 -20 -13 -6
-39 -20 -58 -31 -146 -88 -159 -86 -18 2 107 66 98 62 98 49z m342 -85 c1 -10
-29 -29 -156 -100 -104 -58 -69 -14 45 56 92 56 110 63 111 44z m-4606 -32
c-2 -16 -86 -79 -187 -141 l-36 -22 3 32 c2 18 8 34 12 36 4 2 47 27 97 56 99
59 114 65 111 39z m922 -126 c-54 -34 -117 -74 -140 -88 -58 -36 -140 -88
-421 -267 -236 -150 -238 -152 -235 -121 3 29 18 40 273 187 149 85 344 199
435 253 91 53 170 97 175 98 6 0 -34 -27 -87 -62z m3682 28 c0 -12 -156 -112
-205 -131 -15 -6 -16 -4 -6 14 7 12 16 22 21 22 5 0 48 25 96 55 49 30 89 55
91 55 2 0 3 -7 3 -15z m-4605 -55 c3 -5 -41 -39 -97 -76 -124 -80 -131 -83
-120 -55 5 16 158 117 209 140 1 1 4 -3 8 -9z m1113 -36 c-4 -3 -50 -33 -105
-66 -54 -33 -136 -84 -183 -113 -98 -60 -160 -99 -467 -288 -122 -75 -225
-137 -228 -137 -4 0 -5 9 -3 21 2 15 70 59 263 171 143 82 364 210 490 284
216 125 247 143 233 128z m3492 -53 c0 -27 -9 -35 -106 -90 -58 -34 -108 -61
-109 -61 -5 0 3 42 10 48 5 5 196 128 203 131 1 1 2 -12 2 -28z m-4690 -96 c0
-2 -10 -9 -22 -15 -22 -11 -22 -10 -4 4 21 17 26 19 26 11z m385 -3 c-28 -24
-175 -110 -175 -103 0 5 39 32 88 60 84 49 107 60 87 43z m-450 -38 c-25 -20
-75 -46 -75 -40 0 5 82 56 90 56 3 -1 -4 -8 -15 -16z m4748 -164 c-11 -11
-184 -111 -196 -113 -5 -1 -11 6 -12 16 -4 20 15 35 130 106 l80 49 3 -25 c2
-14 0 -29 -5 -33z m-3703 46 c0 -2 -64 -43 -142 -91 -79 -49 -246 -152 -373
-230 -126 -78 -236 -145 -242 -149 -9 -5 -13 -1 -13 12 0 15 42 44 172 118 95
55 193 111 218 125 123 71 250 144 290 167 25 14 54 31 65 38 20 15 25 16 25
10z m-897 -27 c-22 -22 -208 -137 -215 -132 -9 5 1 33 12 33 4 0 50 25 101 55
89 52 127 69 102 44z m2 -151 c-3 -37 -13 -46 -139 -125 l-85 -52 2 42 2 42
105 62 c58 34 108 62 111 62 4 1 5 -14 4 -31z m4605 -15 l0 -48 -97 -55 c-54
-30 -102 -56 -109 -58 -14 -4 -12 70 2 75 5 2 52 32 104 67 52 35 96 65 98 65
1 1 2 -20 2 -46z m-3872 -57 c-9 -7 -120 -75 -245 -150 -125 -76 -257 -156
-292 -177 -60 -37 -93 -45 -60 -15 14 13 192 117 404 237 33 18 92 53 130 76
69 42 96 55 63 29z m-732 -116 c0 -27 -9 -36 -100 -94 -56 -35 -107 -66 -113
-70 -10 -5 -13 4 -13 32 0 39 0 39 103 100 56 33 107 60 113 61 6 1 10 -13 10
-29z m4604 -18 c0 -36 -3 -39 -67 -76 -38 -21 -87 -49 -109 -63 l-42 -23 3 31
c2 17 7 34 11 39 11 9 196 130 201 130 2 0 3 -17 3 -38z m-3950 -96 c0 -4
-116 -79 -155 -101 -11 -6 -38 -22 -60 -37 -178 -116 -315 -195 -315 -180 0
15 119 88 394 241 33 19 77 45 96 58 36 24 40 26 40 19z m-652 -53 c-2 -10
-16 -27 -33 -39 -42 -30 -182 -114 -189 -114 -3 0 -6 10 -6 23 0 18 22 34 108
84 59 35 111 63 115 63 4 0 7 -8 5 -17z m4258 -81 c-3 -6 -23 -20 -43 -31
l-38 -21 40 34 c37 32 55 40 41 18z m344 -47 c0 -25 -5 -38 -17 -42 -10 -4
-55 -29 -101 -56 -46 -27 -86 -46 -90 -43 -21 22 -3 42 96 107 59 38 108 69
110 69 1 0 2 -16 2 -35z m-4605 -44 c0 -38 -1 -39 -106 -105 -59 -36 -110 -66
-113 -66 -3 0 -6 18 -6 40 l0 39 108 65 c59 35 109 65 112 65 3 1 5 -16 5 -38z
m4583 -163 c-12 -9 -26 -18 -30 -18 -3 0 -41 -20 -82 -45 -42 -25 -78 -45 -81
-45 -9 0 6 45 17 52 7 4 54 34 103 66 89 58 90 58 93 33 3 -17 -4 -30 -20 -43z
m-4582 -22 c0 -19 -19 -36 -107 -90 -59 -36 -110 -66 -114 -66 -3 0 -5 14 -3
32 3 33 3 34 149 116 66 38 75 39 75 8z m3384 -49 c-18 -17 -98 -64 -87 -51 9
10 89 62 97 63 2 1 -2 -5 -10 -12z m255 -27 c-3 -5 -12 -10 -18 -10 -7 0 -6 4
3 10 19 12 23 12 15 0z m-3330 -10 c-3 -5 -12 -10 -18 -10 -7 0 -6 4 3 10 19
12 23 12 15 0z m4299 1 c9 -14 -16 -36 -84 -76 -36 -21 -79 -46 -97 -57 -19
-11 -34 -15 -38 -9 -5 9 188 149 207 150 4 1 9 -3 12 -8z m-1004 -15 c0 -4
-98 -69 -130 -86 -40 -21 -19 -4 56 45 71 46 74 48 74 41z m-3360 -20 c0 -2
-27 -20 -60 -39 -33 -20 -60 -33 -60 -29 0 4 26 21 58 39 61 35 62 35 62 29z
m-250 -25 c0 -4 -50 -38 -111 -75 -61 -36 -109 -60 -107 -54 3 7 51 41 109 75
120 71 109 65 109 54z m4603 -121 c-14 -14 -205 -121 -209 -118 -7 8 16 27
106 88 52 35 97 68 100 74 2 6 6 0 8 -13 2 -13 0 -27 -5 -31z m-4597 -17 c-2
-14 -198 -143 -218 -143 -13 0 -9 37 5 47 6 6 37 24 67 40 30 16 71 40 90 51
42 26 59 28 56 5z m343 -127 c-2 -1 -30 -20 -62 -40 -51 -32 -56 -34 -46 -14
22 44 42 58 77 58 20 0 33 -2 31 -4z m-349 -30 c0 -19 -18 -34 -97 -82 -54
-33 -102 -62 -108 -66 -7 -4 -12 4 -13 22 -2 27 5 34 100 90 57 33 106 60 111
60 4 0 7 -11 7 -24z m619 20 c-2 -2 -44 -26 -94 -55 l-90 -52 58 56 c49 46 65
55 95 55 19 0 33 -2 31 -4z m240 0 c-13 -12 -142 -87 -145 -84 -4 5 127 86
140 87 5 1 7 -1 5 -3z m3754 -73 c6 -5 -145 -103 -160 -103 -7 0 140 109 148
110 3 0 9 -3 12 -7z m-3623 -28 c0 -2 -10 -9 -22 -15 -22 -11 -22 -10 -4 4 21
17 26 19 26 11z m-50 -30 c0 -2 -10 -10 -22 -16 -21 -11 -22 -11 -9 4 13 16
31 23 31 12z m-940 -49 c0 -20 -16 -34 -87 -77 -49 -29 -97 -58 -108 -66 -19
-12 -21 -10 -20 19 1 28 8 35 100 88 55 32 103 59 108 59 4 1 7 -10 7 -23z
m190 -40 c-21 -20 -39 -30 -44 -25 -11 10 -13 8 34 37 48 30 51 27 10 -12z
m819 -2 c-7 -9 -38 -30 -67 -48 -30 -17 -72 -41 -94 -54 -21 -13 -44 -22 -49
-20 -6 2 9 14 33 26 23 12 75 42 113 66 81 51 82 51 64 30z m3601 12 c0 -2
-17 -14 -37 -25 l-38 -21 30 25 c28 23 45 31 45 21z m-4557 -137 c-12 -10
-257 -158 -259 -156 -1 1 -4 16 -7 33 -5 34 -22 21 198 151 l40 23 18 -22 c10
-11 14 -25 10 -29z m557 21 c-14 -11 -32 -20 -40 -20 -8 0 -1 9 15 19 39 26
57 26 25 1z m-330 -10 c-8 -5 -19 -10 -25 -10 -5 0 -3 5 5 10 8 5 20 10 25 10
6 0 3 -5 -5 -10z m1455 0 c-3 -5 -12 -10 -18 -10 -7 0 -6 4 3 10 19 12 23 12
15 0z m-1500 -72 c5 -5 -52 -44 -137 -93 -10 -5 -67 -40 -128 -77 -60 -38
-115 -68 -121 -68 -12 0 -38 29 -39 42 0 5 111 72 260 156 25 14 54 31 65 39
19 13 88 13 100 1z m240 -4 c-9 -7 -111 -69 -226 -139 -147 -89 -216 -125
-233 -123 -19 2 30 35 210 139 130 75 243 136 251 136 13 0 13 -2 -2 -13z
m224 -2 c-20 -16 -112 -73 -171 -107 -10 -5 -71 -43 -137 -83 -84 -51 -128
-72 -146 -70 -20 2 -1 17 102 76 71 40 178 101 238 137 105 61 165 86 114 47z
m496 3 c0 -4 -94 -66 -209 -137 -196 -120 -211 -128 -259 -128 l-52 0 175 100
c95 55 176 100 178 100 2 0 16 8 30 19 70 49 137 72 137 46z m473 3 c-2 -4
-97 -66 -212 -138 -206 -129 -210 -131 -262 -128 l-52 3 131 75 c213 122 219
125 287 163 58 32 115 46 108 25z m303 -5 c7 -7 -25 -33 -91 -74 -55 -35 -126
-81 -158 -101 -132 -86 -135 -86 -208 -89 -38 -1 -69 2 -70 7 -1 5 102 68 228
140 176 101 236 131 259 129 17 -2 35 -7 40 -12z m768 4 c-2 -2 -78 -51 -169
-109 -91 -58 -268 -171 -393 -252 -126 -80 -237 -146 -246 -146 -17 0 -41 18
-41 31 0 4 28 23 63 42 34 19 134 76 222 127 197 115 270 157 315 182 19 11
76 44 125 73 50 29 97 54 105 57 15 5 28 1 19 -5z m311 7 c0 -8 -390 -259
-427 -276 -23 -10 -48 -26 -55 -36 -7 -10 -83 -63 -169 -118 l-156 -101 -79
-2 -79 -1 40 23 c320 185 855 493 872 502 20 11 53 16 53 9z m270 2 c0 -2 -37
-28 -82 -57 -46 -30 -85 -56 -88 -59 -3 -3 -58 -40 -122 -83 -102 -67 -123
-77 -160 -76 -32 0 -39 3 -28 10 51 33 402 234 435 249 47 22 45 21 45 16z
m-2407 -20 c2 -6 -75 -56 -264 -170 -103 -61 -154 -87 -172 -84 -20 2 24 32
201 134 125 72 229 130 230 128 2 -1 4 -5 5 -8z m1361 5 c3 -5 -22 -27 -57
-49 -368 -237 -378 -243 -393 -227 -9 8 -27 15 -42 15 -20 0 10 21 113 81 77
45 156 91 175 102 133 77 191 100 204 78z m1281 1 c-6 -5 -95 -66 -198 -136
-173 -116 -192 -127 -228 -124 l-40 3 93 53 c51 29 154 89 228 132 121 71 172
96 145 72z m1055 -59 c0 -10 -14 -26 -31 -36 l-31 -17 28 34 c34 41 34 41 34
19z m-780 -28 c0 -2 -54 -43 -121 -90 -94 -67 -127 -85 -149 -83 -24 3 -7 16
118 89 168 99 152 90 152 84z m525 -102 l-73 -77 -61 -1 c-34 0 -61 2 -61 5 1
5 251 149 262 150 3 0 -27 -35 -67 -77z m-405 33 c0 -11 -147 -109 -167 -111
-32 -3 -23 5 77 64 89 53 90 53 90 47z m-2865 -32 c-26 -20 -55 -36 -55 -30 0
5 63 46 70 46 3 -1 -4 -8 -15 -16z m-65 -39 c0 -2 -13 -11 -30 -20 -38 -19
-40 -11 -2 9 31 17 32 18 32 11z m3470 -25 c0 -5 -5 -10 -11 -10 -5 0 -7 5 -4
10 3 6 8 10 11 10 2 0 4 -4 4 -10z"/>
</g>
</svg>
